<svg width="449" height="257" viewBox="0 0 449 257" fill="none" xmlns="http://www.w3.org/2000/svg">
<path d="M161.594 46.7268V30.5844C161.594 26.4996 164.903 23.19 168.988 23.19H236.058C240.143 23.19 243.453 26.4996 243.453 30.5844V46.7268H259.074V17.8788C259.074 13.794 255.765 10.4844 251.68 10.4844H152.531C148.446 10.4844 145.137 13.794 145.137 17.8788V46.7268" fill="#A3C8FF"/>
<path fill-rule="evenodd" clip-rule="evenodd" d="M143.938 17.8756C143.938 13.1281 147.784 9.28125 152.532 9.28125H251.681C256.428 9.28125 260.275 13.1281 260.275 17.8756V47.9237H242.254V30.5812C242.254 27.1592 239.481 24.3869 236.059 24.3869H168.989C165.567 24.3869 162.794 27.1592 162.794 30.5812V46.7237H160.394V30.5812C160.394 25.8337 164.241 21.9869 168.989 21.9869H236.059C240.807 21.9869 244.654 25.8337 244.654 30.5812V45.5237H257.875V17.8756C257.875 14.4536 255.103 11.6812 251.681 11.6812H152.532C149.11 11.6812 146.338 14.4536 146.338 17.8756V46.7237H143.938V17.8756Z" fill="#1666DB"/>
<path d="M75.4973 227.157C71.4317 227.157 68.1221 223.848 68.1221 219.782V107.078H336.089V219.782C336.089 223.848 332.78 227.157 328.714 227.157H75.4973Z" fill="#A3C8FF"/>
<path d="M334.889 108.283V219.787C334.889 223.192 332.119 225.962 328.714 225.962H75.4971C72.0915 225.962 69.3219 223.192 69.3219 219.787V108.283H334.889ZM337.289 105.883H66.9219V219.787C66.9219 224.522 70.7619 228.362 75.4971 228.362H328.716C333.451 228.362 337.291 224.522 337.291 219.787V105.883H337.289Z" fill="#1666DB"/>
<path d="M184.787 153.558L68.4013 132.023C64.2829 131.262 61.2949 127.667 61.2949 123.479V54.1907C61.2949 50.7347 64.1077 47.9219 67.5637 47.9219H336.649C340.105 47.9219 342.918 50.7347 342.918 54.1907V123.488C342.918 127.671 339.933 131.264 335.821 132.03L220.192 153.558H184.787Z" fill="#A3C8FF"/>
<path d="M336.649 49.1187C339.445 49.1187 341.718 51.3915 341.718 54.1875V123.488C341.718 127.092 339.145 130.188 335.6 130.848L220.079 152.355H184.897L68.6195 130.841C65.0699 130.184 62.4947 127.088 62.4947 123.478V54.1899C62.4947 51.3939 64.7699 49.1211 67.5635 49.1211H336.649M336.649 46.7188H67.5635C63.4379 46.7188 60.0947 50.0619 60.0947 54.1875V123.478C60.0947 128.244 63.4955 132.334 68.1827 133.2L184.676 154.755H220.3L336.04 133.208C340.722 132.336 344.118 128.249 344.118 123.488V54.1899C344.118 50.0643 340.775 46.7188 336.649 46.7188Z" fill="#1666DB"/>
<path d="M212.071 177.895H192.143C190.511 177.895 189.187 176.57 189.187 174.938V149.68C189.187 143.904 193.871 139.219 199.648 139.219H204.566C210.343 139.219 215.027 143.904 215.027 149.68V174.938C215.027 176.572 213.703 177.895 212.071 177.895Z" fill="#1666DB"/>
<path fill-rule="evenodd" clip-rule="evenodd" d="M199.648 140.416C194.534 140.416 190.386 144.563 190.386 149.677V174.935C190.386 175.904 191.174 176.692 192.143 176.692H212.07C213.04 176.692 213.827 175.906 213.827 174.935V149.677C213.827 144.563 209.68 140.416 204.566 140.416H199.648ZM187.986 149.677C187.986 143.238 193.208 138.016 199.648 138.016H204.566C211.005 138.016 216.227 143.238 216.227 149.677V174.935C216.227 177.233 214.364 179.092 212.07 179.092H192.143C189.848 179.092 187.986 177.23 187.986 174.935V149.677Z" fill="#1666DB"/>
<path d="M201.98 160.184C205.671 160.184 208.662 157.192 208.662 153.502C208.662 149.812 205.671 146.82 201.98 146.82C198.29 146.82 195.299 149.812 195.299 153.502C195.299 157.192 198.29 160.184 201.98 160.184Z" fill="white"/>
<path d="M337.266 187.781L346.578 178.47L361.168 193.058L351.855 202.369L337.266 187.781Z" fill="#1666DB"/>
<path d="M349.369 207.777C347.654 206.062 347.654 203.282 349.369 201.566L360.231 190.706C361.946 188.991 364.727 188.991 366.442 190.706L397.857 222.117C401.288 225.547 401.288 231.108 397.857 234.539L393.207 239.188C389.777 242.618 384.215 242.618 380.784 239.188L349.369 207.777Z" fill="#EFEFEF"/>
<path fill-rule="evenodd" clip-rule="evenodd" d="M361.784 192.259L350.922 203.119C350.065 203.977 350.065 205.367 350.922 206.225L382.337 237.635C384.91 240.208 389.081 240.208 391.654 237.635L396.304 232.986C398.877 230.413 398.877 226.242 396.304 223.67L364.89 192.259C364.032 191.402 362.641 191.402 361.784 192.259ZM349.369 201.566C347.654 203.282 347.654 206.062 349.369 207.777L380.784 239.188C384.215 242.618 389.777 242.618 393.207 239.188L397.857 234.539C401.288 231.108 401.288 225.547 397.857 222.117L366.442 190.706C364.727 188.991 361.946 188.991 360.231 190.706L349.369 201.566Z" fill="#1666DB"/>
<path d="M359.653 149.371C359.653 176.28 337.836 198.094 310.924 198.094C284.012 198.094 262.195 176.28 262.195 149.371C262.195 122.462 284.012 100.648 310.924 100.648C337.836 100.648 359.653 122.462 359.653 149.371Z" fill="#EFEFEF"/>
<path fill-rule="evenodd" clip-rule="evenodd" d="M310.924 195.898C336.624 195.898 357.457 175.067 357.457 149.371C357.457 123.675 336.624 102.844 310.924 102.844C285.224 102.844 264.391 123.675 264.391 149.371C264.391 175.067 285.224 195.898 310.924 195.898ZM310.924 198.094C337.836 198.094 359.653 176.28 359.653 149.371C359.653 122.462 337.836 100.648 310.924 100.648C284.012 100.648 262.195 122.462 262.195 149.371C262.195 176.28 284.012 198.094 310.924 198.094Z" fill="#1666DB"/>
<path d="M349.116 149.376C349.116 170.466 332.017 187.564 310.923 187.564C289.83 187.564 272.73 170.466 272.73 149.376C272.73 128.285 289.83 111.188 310.923 111.188C332.017 111.188 349.116 128.285 349.116 149.376Z" fill="white"/>
<path fill-rule="evenodd" clip-rule="evenodd" d="M310.923 185.368C330.804 185.368 346.92 169.253 346.92 149.376C346.92 129.498 330.804 113.383 310.923 113.383C291.043 113.383 274.926 129.498 274.926 149.376C274.926 169.253 291.043 185.368 310.923 185.368ZM310.923 187.564C332.017 187.564 349.116 170.466 349.116 149.376C349.116 128.285 332.017 111.188 310.923 111.188C289.83 111.188 272.73 128.285 272.73 149.376C272.73 170.466 289.83 187.564 310.923 187.564Z" fill="#1666DB"/>
<path d="M435.106 77.8425C435.012 77.8425 434.917 77.8329 434.825 77.8161L357.757 63.1353C356.945 62.9817 356.41 62.1897 356.566 61.3737L366.149 11.0625L446.163 26.3049L436.58 76.6161C436.443 77.3265 435.824 77.8425 435.106 77.8425Z" fill="white"/>
<path d="M367.102 12.4697L444.756 27.2609L435.396 76.3913C435.365 76.5545 435.221 76.6433 435.103 76.6433C435.084 76.6433 435.065 76.6409 435.046 76.6385L357.977 61.9577C357.898 61.9433 357.835 61.9001 357.789 61.8329C357.756 61.7849 357.722 61.7057 357.742 61.6001L367.102 12.4697ZM365.194 9.66406L355.385 61.1537C355.104 62.6225 356.064 64.0385 357.528 64.3193L434.597 79.0001C434.767 79.0313 434.935 79.0481 435.103 79.0481C436.373 79.0481 437.506 78.1433 437.755 76.8449L447.564 25.3553L365.194 9.66406Z" fill="#EFEFEF"/>
<path d="M366.361 9.92426L367.629 3.27626C367.866 2.03306 368.694 1.28906 369.357 1.28906C369.414 1.28906 369.472 1.29386 369.529 1.30586L446.598 15.9867C447.049 16.0731 447.316 16.4787 447.436 16.7115C447.69 17.2107 447.765 17.8707 447.642 18.5163L446.375 25.1643L366.361 9.92426Z" fill="#EFEFEF"/>
<path d="M369.375 2.50335L446.302 17.1553C446.401 17.2778 446.578 17.6906 446.463 18.2978L445.421 23.7673L367.767 8.97615L368.809 3.50655C368.921 2.89935 369.238 2.57775 369.375 2.50335ZM369.356 0.09375C368.031 0.09375 366.776 1.33215 366.449 3.05535L364.959 10.8841L447.329 26.5754L448.82 18.7466C449.18 16.853 448.287 15.0914 446.823 14.8106L369.754 0.129749C369.62 0.105749 369.488 0.09375 369.356 0.09375Z" fill="#EFEFEF"/>
<path d="M426.986 19.4219C428.128 19.4219 429.053 18.4967 429.053 17.3555C429.053 16.2142 428.128 15.2891 426.986 15.2891C425.845 15.2891 424.92 16.2142 424.92 17.3555C424.92 18.4967 425.845 19.4219 426.986 19.4219Z" fill="white"/>
<path d="M434.772 20.9062C435.913 20.9062 436.838 19.9811 436.838 18.8398C436.838 17.6986 435.913 16.7734 434.772 16.7734C433.63 16.7734 432.705 17.6986 432.705 18.8398C432.705 19.9811 433.63 20.9062 434.772 20.9062Z" fill="white"/>
<path d="M442.559 22.3828C443.7 22.3828 444.625 21.4576 444.625 20.3164C444.625 19.1752 443.7 18.25 442.559 18.25C441.417 18.25 440.492 19.1752 440.492 20.3164C440.492 21.4576 441.417 22.3828 442.559 22.3828Z" fill="white"/>
<path fill-rule="evenodd" clip-rule="evenodd" d="M397.347 32.7162C397.743 32.3357 398.363 32.0201 399.088 32.1579L410.771 34.3827C410.771 34.3827 410.771 34.3827 410.771 34.3827C410.771 34.3828 410.772 34.3828 410.772 34.3828C411.498 34.521 411.959 35.0428 412.186 35.5429C412.416 36.0471 412.468 36.6295 412.362 37.185L411.445 41.9951L409.088 41.5457L410.004 36.7367C410.004 36.7367 410.004 36.7367 410.004 36.7367C410.008 36.7173 410.011 36.6987 410.012 36.6813L398.949 34.5746C398.944 34.5909 398.94 34.6084 398.936 34.6271C398.936 34.6272 398.936 34.6271 398.936 34.6271L398.02 39.4367L395.662 38.9874L396.579 34.1778C396.685 33.6221 396.949 33.1 397.347 32.7162Z" fill="#EFEFEF"/>
<path d="M413.866 59.5849L386.945 54.4561C386.326 54.3385 385.918 53.7385 386.036 53.1193L389.069 37.1953L418.239 42.7513L415.205 58.6753C415.085 59.2969 414.488 59.7025 413.866 59.5849Z" fill="#EFEFEF"/>
<path fill-rule="evenodd" clip-rule="evenodd" d="M52.8755 190.947C50.6233 191.52 49.2804 193.775 49.836 195.962C50.3917 198.148 52.6485 199.489 54.9007 198.917C57.1529 198.344 58.4957 196.089 57.9401 193.902C57.3845 191.716 55.1277 190.375 52.8755 190.947ZM47.51 196.553C46.6206 193.053 48.7761 189.513 52.2844 188.621C55.7926 187.73 59.3769 189.812 60.2662 193.311C61.1555 196.811 59 200.351 55.4918 201.243C51.9836 202.134 48.3993 200.052 47.51 196.553Z" fill="#1666DB"/>
<path d="M71.3428 254.706C75.4537 253.661 77.9393 249.482 76.8946 245.371C75.8499 241.26 71.6705 238.775 67.5596 239.819C63.4487 240.864 60.9631 245.043 62.0078 249.154C63.0525 253.265 67.2319 255.751 71.3428 254.706Z" fill="#1666DB"/>
<path d="M90.8027 235.775L86.2523 231.556L81.0923 211.249C78.5507 201.249 67.8827 195.328 57.2627 198.028L54.9299 198.621C44.3123 201.318 37.7627 211.614 40.3043 221.615L45.4643 241.921L43.4795 247.801C42.2171 250.513 44.7419 253.331 47.7491 252.568L89.3219 242.003C92.3315 241.237 93.2051 237.556 90.8027 235.775Z" fill="white"/>
<path fill-rule="evenodd" clip-rule="evenodd" d="M56.9668 196.868C68.1626 194.022 79.5337 200.25 82.255 210.957L87.3277 230.92L91.573 234.856C94.8314 237.338 93.4436 242.196 89.6174 243.169L89.6171 243.169L48.0443 253.734L48.044 253.734C44.2193 254.705 40.682 251.098 42.362 247.362L44.2136 241.877L39.1409 221.914C39.1409 221.914 39.1409 221.914 39.1409 221.914C36.4197 211.206 43.4408 200.305 54.634 197.461M54.634 197.461L56.9668 196.868C56.9669 196.868 56.9668 196.868 56.9668 196.868M79.9289 211.548C77.567 202.255 67.6022 196.641 57.558 199.194L55.2251 199.787C45.1832 202.338 39.1051 212.029 41.467 221.323L46.627 241.629C46.684 241.853 46.6749 242.089 46.6009 242.309L44.6161 248.189C44.602 248.23 44.5857 248.271 44.5671 248.311C43.7919 249.977 45.2856 251.958 47.4536 251.408L89.0257 240.843C91.197 240.291 91.5624 237.836 90.0878 236.742C90.0525 236.716 90.0187 236.688 89.9865 236.658L85.4361 232.439C85.2664 232.282 85.1459 232.079 85.0889 231.855L79.9289 211.548Z" fill="#1666DB"/>
<path d="M22.6321 58.1803C34.9552 58.1803 44.9449 48.1905 44.9449 35.8675C44.9449 23.5445 34.9552 13.5547 22.6321 13.5547C10.3091 13.5547 0.319336 23.5445 0.319336 35.8675C0.319336 48.1905 10.3091 58.1803 22.6321 58.1803Z" fill="#1666DB"/>
<path d="M13.0313 43.5574L21.3881 46.8742C21.8033 47.0398 22.2737 46.8358 22.4369 46.4206L30.8993 25.0966C31.0649 24.6814 30.8609 24.211 30.4457 24.0478L28.0073 23.0806C27.5897 22.915 27.1169 23.1214 26.9561 23.539L19.8569 41.8894L14.5049 39.6982C14.0825 39.5254 13.6001 39.7366 13.4393 40.1662L12.5681 42.5278C12.4193 42.9358 12.6233 43.3942 13.0313 43.5574Z" fill="white"/>
<path d="M403.084 177.602C410.825 177.602 417.1 171.327 417.1 163.586C417.1 155.845 410.825 149.57 403.084 149.57C395.344 149.57 389.068 155.845 389.068 163.586C389.068 171.327 395.344 177.602 403.084 177.602Z" fill="#1666DB"/>
<path d="M395.362 163.409L398.045 168.38C398.177 168.627 398.487 168.718 398.734 168.586L411.416 161.741C411.663 161.609 411.754 161.3 411.622 161.053L410.839 159.603C410.705 159.356 410.395 159.262 410.148 159.399L399.324 165.363L397.635 162.147C397.5 161.893 397.184 161.799 396.934 161.943L395.561 162.728C395.319 162.865 395.23 163.167 395.362 163.409Z" fill="white"/>
</svg>
